<svg width="1040" height="1057" viewBox="0 0 1040 1057" fill="none" xmlns="http://www.w3.org/2000/svg">
<path d="M821.714 8.63306C849.214 8.63306 876.714 8.97316 904.204 8.49316C918.894 8.23316 932.864 11.8232 946.144 16.6132C969.694 25.1032 989.894 39.4431 1005.52 59.2331C1011.71 67.0731 1016.17 76.2731 1021.5 84.8031C1033.04 103.293 1036.5 136.5 1036.5 141.5C1036.5 146.5 1036.51 154.483 1036.51 159.143C1036.48 209.983 1036.49 260.813 1036.48 311.653C1036.48 322.023 1033.78 324.613 1023.49 324.613C979.164 324.613 934.834 324.613 890.504 324.693C875.714 324.713 874.404 323.553 874.404 309.043C874.404 272.373 874.404 235.703 874.404 199.033C874.404 196.203 874.194 193.363 874.264 190.533C874.484 182.043 867.107 169.74 858.997 170C848.507 170.33 837.997 170.06 827.497 170.06C796.997 170.06 766.497 170.06 735.997 170.03C734.007 170.03 731.997 170.03 728.997 170C725.497 169.965 723.298 170.03 723.364 167.653C723.484 163.323 723.384 158.983 723.374 154.653C723.364 110.983 723.324 67.3131 723.344 23.6431C723.344 9.29307 724.024 8.65306 738.224 8.63306C766.054 8.61306 793.884 8.63316 821.724 8.61316L821.714 8.63306Z" fill="#9174E4"/>
<path d="M218.344 1055.06C190.844 1055.06 163.344 1054.72 135.854 1055.2C121.164 1055.46 107.194 1051.87 93.9142 1047.08C70.3642 1038.59 50.1642 1024.25 34.5342 1004.46C28.3442 996.62 23.8842 987.42 18.5542 978.89C7.01422 960.4 6.16422 939.16 3.22422 918.51C2.57422 913.96 3.54422 909.21 3.54422 904.55C3.57422 853.71 3.56422 802.88 3.57422 752.04C3.57422 741.67 6.27422 739.08 16.5642 739.08C60.8942 739.08 105.224 739.08 149.554 739C164.344 738.98 165.654 740.14 165.654 754.65C165.654 791.32 165.654 827.99 165.654 864.66C165.654 867.49 165.864 870.33 165.794 873.16C165.574 881.65 172.951 893.954 181.061 893.694C191.551 893.364 202.061 893.634 212.561 893.634C243.061 893.634 273.561 893.634 304.061 893.664C306.051 893.664 308.061 893.664 311.061 893.694C314.561 893.729 316.76 893.664 316.694 896.04C316.574 900.37 316.674 904.71 316.684 909.04C316.694 952.71 316.734 996.38 316.714 1040.05C316.714 1054.4 316.034 1055.04 301.834 1055.06C274.004 1055.08 246.174 1055.06 218.334 1055.08L218.344 1055.06Z" fill="#9174E4"/>
<path d="M210.12 408.324C210.12 354.699 210.265 301.064 210.078 247.439C209.871 185.507 209.395 123.574 209.001 61.6408C208.908 46.7558 213.641 45.6665 227.353 47.8758C239.554 49.8408 251.982 50.4923 264.254 52.1111C268.77 52.7017 273.14 54.3918 277.573 55.6136C278.401 55.8376 279.168 56.255 279.996 56.4891C290.022 59.401 300.368 61.5391 309.989 65.3978C319.735 69.3074 328.89 74.7137 338.056 79.8858C342.634 82.4718 346.776 85.8724 350.919 89.1508C366.785 101.684 381.088 115.561 390.481 133.704C396.136 144.618 402.433 155.217 407.746 166.284C410.884 172.821 413.163 179.866 414.954 186.901C419.946 206.49 423.861 226.303 424.13 246.594C424.192 251.461 426.471 252.937 430.831 252.571C432.364 252.438 433.99 252.326 435.378 251.756C458.504 242.308 483.091 238.531 507.595 235.507C525.108 233.349 543.056 234.845 560.787 234.132C578.621 233.42 595.533 238.969 612.953 241.015C625.226 242.461 637.115 247.409 649.067 251.135C657.881 253.884 666.601 256.969 675.187 260.339C680.904 262.579 686.382 265.46 691.851 268.27C698.821 271.844 705.863 275.346 712.533 279.409C721.553 284.896 730.502 290.578 739.046 296.758C749.133 304.047 759.138 311.541 768.49 319.716C776.454 326.67 783.808 334.398 790.767 342.339C799.612 352.439 808.177 362.824 816.151 373.596C822.086 381.619 827.192 390.293 832.121 398.978C838.066 409.424 843.659 420.074 848.961 430.845C852.017 437.056 854.575 443.562 856.708 450.139C859.846 459.801 862.746 469.565 865.107 479.431C867.821 490.773 870.514 502.186 872.005 513.731C874.252 531.141 876.22 548.653 876.8 566.175C877.152 576.845 874.667 587.607 873.476 598.328C873.144 601.362 873.134 604.447 872.564 607.43C869.675 622.529 867.168 637.719 863.461 652.625C861.151 661.9 857.019 670.737 853.591 679.727C850.587 687.597 847.605 695.468 844.27 703.205C842.406 707.522 840.044 711.666 837.59 715.698C832.142 724.637 826.788 733.637 820.864 742.261C814.432 751.617 808.032 761.127 800.471 769.587C788.313 783.19 776.009 796.853 762.276 808.836C749.786 819.73 735.504 828.7 721.626 837.975C712.45 844.115 702.798 849.643 692.99 854.795C686.082 858.419 678.604 860.995 671.334 863.927C662.945 867.318 654.504 870.576 646.095 873.895C645.297 874.211 644.52 874.638 643.692 874.811C627.214 878.283 610.623 881.307 594.27 885.267C570.605 890.999 546.598 889.065 522.726 888.902C511.147 888.821 499.579 886.102 488.01 884.534C486.301 884.3 484.613 883.913 482.936 883.557C469.503 880.706 455.749 878.802 442.71 874.73C428.584 870.311 414.985 864.151 401.408 858.185C390.647 853.461 380.083 848.238 369.789 842.598C362.612 838.668 355.88 833.882 349.252 829.077C341.65 823.569 333.996 818.03 327.047 811.769C316.297 802.076 305.816 792.068 295.811 781.632C287.94 773.426 280.587 764.66 273.72 755.619C267.589 747.545 262.369 738.789 256.849 730.267C253.452 725.024 250.231 719.669 247 714.323C246.037 712.735 245.208 711.055 244.463 709.355C238.445 695.559 232.47 681.743 226.483 667.937C226.276 667.469 225.997 667.021 225.872 666.532C223.231 656.402 220.559 646.272 217.991 636.121C216.458 630.053 214.936 623.964 213.693 617.835C212.854 613.702 212.16 609.487 211.974 605.282C211.228 589.022 210.275 572.752 210.192 556.473C209.964 507.083 210.11 457.704 210.099 408.314L210.12 408.324ZM543.501 701.587C624.605 702.259 686.807 636.009 685.761 560.066C684.704 483.147 621.995 421.418 542.808 421.265C462.75 421.112 397.762 485.723 399.906 567.173C401.77 637.984 464.78 704.05 543.501 701.587Z" fill="#9174E4"/>
<ellipse cx="636.731" cy="481.742" rx="92.6498" ry="94.2458" transform="rotate(-90 636.731 481.742)" fill="#9174E4"/>
</svg>
